Coordinates
version=1
nRows=20
nColumns=38
inDegrees=no

Units are S.I. units (second, meters, Newtons, ...)
If the header above contains a line with 'inDegrees', this indicates whether rotational values are in degrees (yes) or radians (no).

endheader
time	pelvis_tilt	pelvis_list	pelvis_rotation	pelvis_tx	pelvis_ty	pelvis_tz	hip_flexion_r	hip_adduction_r	hip_rotation_r	knee_angle_r	ankle_angle_r	subtalar_angle_r	mtp_angle_r	hip_flexion_l	hip_adduction_l	hip_rotation_l	knee_angle_l	ankle_angle_l	subtalar_angle_l	mtp_angle_l	lumbar_extension	lumbar_bending	lumbar_rotation	arm_flex_r	arm_add_r	arm_rot_r	elbow_flex_r	pro_sup_r	wrist_flex_r	wrist_dev_r	arm_flex_l	arm_add_l	arm_rot_l	elbow_flex_l	pro_sup_l	wrist_flex_l	wrist_dev_l
1.99	-0.261709	1.36695	-1.25921	0.68341	-0.519926	0.931087	-0.453796	0.119525	0.00288756	0.255057	-0.177583	0	0	0.132347	-0.0511481	-0.0833608	0.0203829	-0.391722	0	0	-0.409174	0.119534	-0.0700276	0.156022	-0.624728	1.2987	0.800054	0.239475	0	0	-0.231612	-0.184996	-0.0691938	0.679268	1.41598	0	0
2	-0.223935	1.36519	-1.29954	0.68493	-0.530167	0.931323	-0.459794	0.109377	0.00214892	0.274328	-0.177989	0	0	0.122517	-0.0388452	-0.0769774	0.0272517	-0.405516	0	0	-0.411234	0.111426	-0.0677619	0.148685	-0.623579	1.29101	0.796725	0.243276	0	0	-0.231488	-0.183473	-0.0694698	0.676503	1.41933	0	0
2.01	-0.192524	1.36426	-1.33277	0.686471	-0.540627	0.931465	-0.463146	0.100518	0.00166905	0.296792	-0.179816	0	0	0.113139	-0.0285857	-0.0719958	0.0274346	-0.435845	0	0	-0.4119	0.104199	-0.0653594	0.138744	-0.623025	1.27844	0.794678	0.251091	0	0	-0.232195	-0.18168	-0.0714187	0.675204	1.42496	0	0
2.02	-0.168824	1.36542	-1.35737	0.688264	-0.551253	0.931419	-0.463726	0.0927518	0.00411613	0.318398	-0.184162	0	0	0.108708	-0.0175926	-0.0667899	0.0378242	-0.46063	0	0	-0.409259	0.0989055	-0.0648216	0.12813	-0.623397	1.2641	0.793831	0.258483	0	0	-0.233645	-0.178492	-0.0752813	0.672817	1.43056	0	0
2.03	-0.150261	1.3675	-1.37621	0.690211	-0.562011	0.931252	-0.460423	0.0859954	0.0040036	0.345428	-0.190289	0	0	0.107827	-0.00792216	-0.0626463	0.0562392	-0.475622	0	0	-0.404576	0.0949979	-0.0649276	0.1177	-0.624189	1.25143	0.793082	0.267725	0	0	-0.236434	-0.174877	-0.0800525	0.671239	1.4372	0	0
2.04	-0.1413	1.36852	-1.38607	0.691956	-0.57301	0.931112	-0.456925	0.0811614	0.00630491	0.373679	-0.19885	0	0	0.105256	-0.00499397	-0.057288	0.0633448	-0.488468	0	0	-0.400084	0.0928513	-0.0641155	0.107796	-0.625147	1.24137	0.79265	0.277591	0	0	-0.241019	-0.171617	-0.0853107	0.671818	1.44518	0	0
2.05	-0.131718	1.36897	-1.39618	0.693731	-0.584014	0.931208	-0.451955	0.0758576	0.00715031	0.405085	-0.210305	0	0	0.102734	-0.0026838	-0.0465099	0.0759873	-0.49932	0	0	-0.396629	0.0908459	-0.0635572	0.0984454	-0.626756	1.23207	0.793578	0.287106	0	0	-0.24545	-0.168373	-0.0911831	0.672882	1.45316	0	0
2.06	-0.120324	1.36957	-1.40708	0.695687	-0.594928	0.931556	-0.444293	0.069555	0.00539016	0.44028	-0.225427	0	0	0.0998872	0.000553524	-0.0353389	0.0892546	-0.509877	0	0	-0.393138	0.0890043	-0.0639561	0.0894816	-0.627756	1.22311	0.793324	0.295495	0	0	-0.249149	-0.164808	-0.0973204	0.673366	1.46047	0	0
2.07	-0.099224	1.3734	-1.4244	0.698647	-0.605636	0.931906	-0.429528	0.0588746	-0.00597807	0.482667	-0.247569	0	0	0.103133	0.0177094	-0.0138687	0.130464	-0.489917	0	0	-0.386537	0.0870722	-0.0670683	0.076491	-0.630186	1.20396	0.79409	0.308274	0	0	-0.250379	-0.158278	-0.107173	0.670329	1.47363	0	0
2.08	-0.0829446	1.37299	-1.43822	0.701	-0.616293	0.932693	-0.418622	0.0491629	-0.0129647	0.523906	-0.270394	0	0	0.0995891	0.0253522	-0.0066035	0.158684	-0.468651	0	0	-0.384527	0.0854359	-0.0685622	0.0663162	-0.632564	1.19014	0.795949	0.316515	0	0	-0.252922	-0.154609	-0.11314	0.670718	1.48205	0	0
2.09	-0.0645621	1.37017	-1.45493	0.702938	-0.626838	0.9339	-0.407841	0.0385466	-0.0194062	0.568283	-0.295603	0	0	0.0865763	0.030195	-0.00405898	0.157354	-0.459861	0	0	-0.385313	0.0829509	-0.0696252	0.0583616	-0.63358	1.18029	0.796651	0.322219	0	0	-0.255508	-0.152678	-0.11709	0.672587	1.48697	0	0
2.1	-0.043508	1.36884	-1.47217	0.705003	-0.637212	0.935148	-0.392478	0.0260712	-0.0312659	0.616668	-0.34365	0	0	0.0747684	0.0384797	0.00368245	0.155386	-0.698132	0	0	-0.386674	0.0797926	-0.0713088	0.0386343	-0.63033	1.13991	0.794796	0.356396	0	0	-0.257745	-0.147234	-0.134191	0.67713	1.50626	0	0
2.11	-0.0275658	1.36551	-1.48542	0.706968	-0.64748	0.936376	-0.377346	0.0140385	-0.0411678	0.666191	-0.383716	0	0	0.0613325	0.0430032	-0.00537543	0.17049	-0.436074	0	0	-0.389038	0.077633	-0.074725	0.0307735	-0.630853	1.12563	0.796555	0.370689	0	0	-0.263463	-0.145751	-0.139995	0.686142	1.50859	0	0
2.12	-0.00684592	1.36227	-1.50377	0.708983	-0.657441	0.937678	-0.35949	0.00045498	-0.0501531	0.717292	-0.416255	0	0	0.0447592	0.0485725	-0.0124552	0.170836	-0.4233	0	0	-0.390882	0.0747133	-0.0784407	0.027792	-0.633411	1.12224	0.799911	0.373728	0	0	-0.267667	-0.145525	-0.141261	0.693068	1.50633	0	0
2.13	0.0145439	1.35928	-1.52295	0.710954	-0.667159	0.938824	-0.338375	-0.0139661	-0.0602641	0.769718	-0.467605	0	0	0.0285673	0.0543471	-0.0186702	0.17121	-0.409291	0	0	-0.393278	0.0710228	-0.083686	0.0264883	-0.635738	1.11944	0.803832	0.377585	0	0	-0.273712	-0.146001	-0.142689	0.703357	1.5002	0	0
2.14	0.035692	1.35613	-1.54299	0.712733	-0.676557	0.939877	-0.315273	-0.0287428	-0.0682612	0.821882	-0.51785	0	0	0.0117636	0.0597023	-0.0266233	0.169006	-0.398334	0	0	-0.396153	0.0666422	-0.0884974	0.026677	-0.637893	1.11835	0.807734	0.380978	0	0	-0.279921	-0.147297	-0.142543	0.713912	1.49543	0	0
2.15	0.0568678	1.35191	-1.56432	0.714166	-0.685594	0.941023	-0.291934	-0.0429246	-0.0743865	0.873718	-0.560279	0	0	-0.0076578	0.0622157	-0.0424458	0.162194	-0.371585	0	0	-0.400441	0.061246	-0.0931681	0.029685	-0.639063	1.12062	0.810501	0.383998	0	0	-0.286008	-0.149405	-0.142209	0.72492	1.4901	0	0
2.16	0.0732029	1.34836	-1.58118	0.715565	-0.694334	0.942022	-0.266986	-0.0562693	-0.0805961	0.925243	-0.589393	0	0	-0.0246711	0.0659184	-0.0467834	0.157373	-0.362066	0	0	-0.404404	0.0571598	-0.0970702	0.0338209	-0.641152	1.12447	0.813982	0.385779	0	0	-0.290569	-0.150846	-0.142116	0.734469	1.48692	0	0
2.17	0.0860866	1.34552	-1.59556	0.716674	-0.702717	0.942905	-0.239201	-0.0686456	-0.0852135	0.977488	-0.618521	0	0	-0.0398803	0.0685703	-0.0516646	0.153892	-0.3541	0	0	-0.409114	0.0533148	-0.101015	0.0401898	-0.643075	1.12952	0.817931	0.386415	0	0	-0.294764	-0.152022	-0.143738	0.744373	1.48178	0	0
2.18	0.0944462	1.34273	-1.60627	0.717577	-0.710744	0.943908	-0.21037	-0.0796909	-0.0891781	1.02709	-0.643691	0	0	-0.054145	0.0699662	-0.0578601	0.15112	-0.348525	0	0	-0.414024	0.0502127	-0.104566	0.0485779	-0.644655	1.13609	0.821153	0.385949	0	0	-0.29681	-0.153071	-0.144372	0.750068	1.47928	0	0
